<svg id="Layer_1" data-name="Layer 1" xmlns="http://www.w3.org/2000/svg" viewBox="0 0 138.37 86.66">
  <defs>
    <style>
      .cls-1 {
        fill: #262424;
      }
    </style>
  </defs>
  <title>diatech logo color black rus</title>
  <g>
    <path class="cls-1" d="M61.08,88.94H53.46v3.41c0,5.75-1.14,9.57-2.48,12.22H61.08V88.94ZM47.59,114.1H43.42v-9.53H46c1.79-3.1,2.9-6.54,2.9-14V84.71H65.77v19.86h3.55v9.53H65.15v-5.3H47.59v5.3Z" transform="translate(-43.42 -27.43)"/>
    <polygon class="cls-1" points="44.52 65.12 33.97 81.36 29.28 81.36 29.28 57.27 33.97 57.27 33.97 73.55 44.52 57.27 49.21 57.27 49.21 81.36 44.52 81.36 44.52 65.12"/>
    <path class="cls-1" d="M103.36,100h7.38l-3.69-9.81Zm15.28,8.81h-4.69l-1.9-5h-10l-1.9,5H95.5l8.9-24.09h5.35Z" transform="translate(-43.42 -27.43)"/>
    <polygon class="cls-1" points="92.7 61.51 85.53 61.51 85.53 81.36 80.84 81.36 80.84 61.51 73.67 61.51 73.67 57.27 92.7 57.27 92.7 61.51"/>
    <polygon class="cls-1" points="112.53 81.36 96.08 81.36 96.08 57.27 112.36 57.27 112.36 61.4 100.78 61.4 100.78 67.05 110.6 67.05 110.6 71 100.78 71 100.78 77.23 112.53 77.23 112.53 81.36"/>
    <polygon class="cls-1" points="132.33 57.27 126.67 65.12 120.98 57.27 115.33 57.27 123.81 69.08 114.98 81.36 120.64 81.36 126.67 73.07 132.68 81.36 138.37 81.36 129.5 69.08 138.02 57.27 132.33 57.27"/>
    <path class="cls-1" d="M139.63,33.47a37.14,37.14,0,0,1,1.68,4.5l37.09-4.28a33.82,33.82,0,0,0-3.88-6.26Z" transform="translate(-43.42 -27.43)"/>
    <path class="cls-1" d="M141.85,40.11a37.06,37.06,0,0,1,.73,4.15l38.67-1.71a34.19,34.19,0,0,0-1.69-6.16Z" transform="translate(-43.42 -27.43)"/>
    <path class="cls-1" d="M142.58,52.91a37.13,37.13,0,0,1-.73,4.15l37.72,3.72a33.78,33.78,0,0,0,1.69-6.16Z" transform="translate(-43.42 -27.43)"/>
    <path class="cls-1" d="M141.31,59.21a36.71,36.71,0,0,1-1.68,4.5l34.88,6a33.89,33.89,0,0,0,3.89-6.26Z" transform="translate(-43.42 -27.43)"/>
    <path class="cls-1" d="M181.63,45.41l-38.88,1.06c0,0.71.1,1.4,0.1,2.12s-0.06,1.41-.1,2.11l38.88,1.06c0.1-1,.16-2.1.16-3.17S181.72,46.46,181.63,45.41Z" transform="translate(-43.42 -27.43)"/>
  </g>
</svg>
