<?xml version="1.0" encoding="utf-8"?>
<!-- Generator: Adobe Illustrator 19.1.0, SVG Export Plug-In . SVG Version: 6.00 Build 0)  -->
<svg version="1.1" id="Layer_1" xmlns="http://www.w3.org/2000/svg" xmlns:xlink="http://www.w3.org/1999/xlink" x="0px" y="0px"
	 viewBox="0 0 36 45" style="" xml:space="preserve">
<style type="text/css">
	.st0{fill-rule:evenodd;clip-rule:evenodd;fill:#425CFF;}
	.st1{fill-rule:evenodd;clip-rule:evenodd;fill:#FFFFFF;}
	.st2{opacity:0.2;fill-rule:evenodd;clip-rule:evenodd;fill:#FFFFFF;}
	.st3{opacity:0.2;}
	.st4{fill:#FFFFFF;}
</style>
<path class="st0" d="M29.4,33.2L18.1,45L7.4,33.9C3.2,29.7,0,25,0,18.7C0,8.4,8.1,0,18,0c9.9,0,18,8.4,18,18.7
	C36,24.6,33.3,29.4,29.4,33.2z"/>
<path class="st1" d="M18,16.4c1,0,1.8,0.8,1.8,1.8c0,1-0.8,1.8-1.8,1.8c-1,0-1.8-0.8-1.8-1.8C16.2,17.3,17,16.4,18,16.4z"/>
<circle class="st2" cx="18" cy="18.3" r="7.1"/>
<g class="st3">
	<path class="st4" d="M18,12.2c3.4,0,6.1,2.7,6.1,6.1s-2.7,6.1-6.1,6.1s-6.1-2.7-6.1-6.1S14.6,12.2,18,12.2 M18,11.2
		c-3.9,0-7.1,3.2-7.1,7.1s3.2,7.1,7.1,7.1s7.1-3.2,7.1-7.1S21.9,11.2,18,11.2L18,11.2z"/>
</g>
</svg>
